# xmcd CD database file
#
# Track frame offsets:
#	150
#	28967
#	43695
#	75667
#	86395
#	102392
#	116975
#	125032
#	144612
#	157845
#	165777
#	178122
#
# Disc length: 2597 seconds
#
# Revision: 2
# Processed by: cddbd v1.5.2PL0 Copyright (c) Steve Scherf et al.
# Submitted via: CDex 1.70beta2
#
DISCID=9a0a230c
DTITLE=Damian Luca, Ionel Draghici, Florentina Satmari - Panpipe Music and Folksongs of Romania
DYEAR=1999
DGENRE=Ethnic
TTITLE0=Panpipe Solo: a) Doina: A Cry in Wood  b) Dance of Maidens
TTITLE1=My Depressed Heart
TTITLE2=Panpipe Solo: a) Doina in Woods  b) Sirba "Womans Dance with Wall"  c) Horse Dance
TTITLE3=Doina "The MoonLight is Splendid"
TTITLE4=Panpipe Solo: a) Shepherdess with Clover  b) Couple Dance from Banat
TTITLE5=Tambal Solo: a) Nostalgic song  b) Wedding dance
TTITLE6=Good Evening, My Friends
TTITLE7=Panpipe Solo: a) Doina  b) Couple dance from Banat
TTITLE8=Over Mountain Gaina
TTITLE9=Tambal Solo: Song of Toast
TTITLE10=a) Doina from Transilvania  b) When My Mother Gave Me a Birth
TTITLE11=Romance: "Why should we have met each other"
EXTD=YEAR: 1999
EXTT0=
EXTT1=
EXTT2=
EXTT3=
EXTT4=
EXTT5=
EXTT6=
EXTT7=
EXTT8=
EXTT9=
EXTT10=
EXTT11=
PLAYORDER=
